<svg xmlns="http://www.w3.org/2000/svg" width="64.001" height="96" viewBox="0 0 64.001 96">
  <g id="Glow-S" transform="translate(-213 -140)">
    <g id="グループ_127" data-name="グループ 127" transform="translate(213 140)">
      <path id="前面オブジェクトで型抜き_9" data-name="前面オブジェクトで型抜き 9" d="M-1727.59-1443c-7.321,0-15.2-5.485-15.2-17.527,0-.842.038-1.942.117-3.362q.016-.3.032-.55l0-.041c.021-.354.039-.656.047-.9a13.155,13.155,0,0,1-.3-2.776v-5.671a14.1,14.1,0,0,1,.28-2.776c.012-.787.047-1.67.105-2.624a13.417,13.417,0,0,1-.49-3.561,13.444,13.444,0,0,1,.129-1.816,16.4,16.4,0,0,1,4.18-8.81,21.1,21.1,0,0,1-1.226-7.1v-5.975c0-2.416.473-5.428,2.825-12.969a43.544,43.544,0,0,1,1.728-5.179,18.018,18.018,0,0,1,8.289-9.044,29.131,29.131,0,0,1,13.146-3.117,28.678,28.678,0,0,1,6.094.644,15.729,15.729,0,0,1,2.768-1.488,16.694,16.694,0,0,1,4.051-1.148,14.866,14.866,0,0,1,2.514-.213,16.25,16.25,0,0,1,8.436,2.427c3.537,2.165,7.647,6.7,7.145,16-.082,1.67-.223,3.858-.431,6.69-.005.033-.008.065-.011.1s-.006.074-.013.109c-.1,1.134-.231,2.607-.381,4.312l0,.04q-.189,2.149-.432,4.9a43.323,43.323,0,0,1-.082,5.436,12.61,12.61,0,0,1-.4,2.367c-.046.173-.093.338-.14.491a25.491,25.491,0,0,1,3.386,5.811,26.086,26.086,0,0,1,1.786,4.955,12.348,12.348,0,0,1,.385,2.249c.526,6.6.258,10.447-.958,13.731-3.771,10.485-14.019,16.859-30.46,18.944-.744.093-1.491.152-2.219.176a12.831,12.831,0,0,1-3.677,3.573C-1720.427-1444.2-1724.032-1443-1727.59-1443Zm.208-42.385c-2.766,0-4.319,1.023-4.615,3.04a5,5,0,0,0,.562,1.3,6.508,6.508,0,0,1,0,2.5,35.322,35.322,0,0,0-.113,4.669c-.078.15-.154.314-.225.489a1.3,1.3,0,0,0-.113.489v5.973a7.1,7.1,0,0,1,.338,2.605c0,.492-.037,1.362-.113,2.661-.075,1.251-.112,2.183-.112,2.768,0,3.243.871,4.887,2.588,4.887a9.519,9.519,0,0,0,4.5-1.738,21.121,21.121,0,0,0,.113-5.863c-.3-3.232-.452-5.206-.452-5.865,3.747,3.872,7.545,5.835,11.292,5.835a11.042,11.042,0,0,0,1.318-.079c6.2-.757,11.188-2.082,14.829-3.937s6.038-4.294,7.122-7.248c.522-1.3.6-4.224.225-8.688a11.349,11.349,0,0,0-1.125-2.93c-2.391-6.2-8.716-9.63-18.8-10.209-4.109-.216-6.93-.8-8.386-1.737a6.2,6.2,0,0,1-2.759-4.126c-.3-1.43-.562-2.891-.788-4.344.011.022.023.034.035.034.063,0,.128-.34.191-1.011a34.088,34.088,0,0,1,1.689-7.71c.494-1.709.922-3.136,1.237-4.127.815-1.965,2.518-2.962,5.06-2.962.254,0,.521.01.794.03,2.389.216,4.34,1.879,5.8,4.942,1.513,3.181,2.636,5.507,3.433,7.112a22.992,22.992,0,0,1,1.24,7.789c0-.009.005-.015.01-.015a9.4,9.4,0,0,1,.663,1.783,5.7,5.7,0,0,0,2.813.759c1.867,0,3-.694,3.378-2.063a25.148,25.148,0,0,0,0-4.777c.445-4.846.787-8.566,1.013-10.969.223-2.855.374-5.12.451-6.732.149-2.52-.211-4.055-1.069-4.56a3.826,3.826,0,0,0-1.913-.59,2.686,2.686,0,0,0-.508.048,4.276,4.276,0,0,0-1.239.326,2.062,2.062,0,0,0-1.576,2.063c.07.815.144,1.7.225,2.714-.231,2.159-.378,3.686-.45,4.669-.523-.432-.9-.761-1.126-.977-2.616-4.323-6.744-6.515-12.271-6.515a18.515,18.515,0,0,0-8.1,1.846,5.787,5.787,0,0,0-2.588,3.041c-.079.149-.507,1.463-1.239,3.8-1.643,5.043-2.477,8.295-2.477,9.664v6.3c0,3.028,1.572,5.732,4.671,8.037a16.084,16.084,0,0,0,9.747,3.369c.109,0,.219,0,.329,0,.515,0,1.913.142,4.277.435,4.033.578,6.836,1.345,8.331,2.281a10.636,10.636,0,0,1,3.8,4.1,12.567,12.567,0,0,1,1.266,5.782,11.022,11.022,0,0,1-.788,4.127c-.748,1.728-3.02,3.262-6.755,4.56a36.392,36.392,0,0,1-8.105,1.845c-.164.015-.33.022-.494.022-2.242,0-4.614-1.4-7.049-4.149a15.767,15.767,0,0,1-4.279-7.818,41.962,41.962,0,0,1-.45-5.1C-1724.492-1484.763-1725.59-1485.384-1727.382-1485.384Z" transform="translate(1743 1539)" fill="#262626"/>
    </g>
  </g>
</svg>
